<?xml version="1.0" encoding="UTF-8" standalone="no"?>
<!DOCTYPE svg PUBLIC "-//W3C//DTD SVG 1.1//EN" "http://www.w3.org/Graphics/SVG/1.1/DTD/svg11.dtd">
<!-- Generated by Microsoft Visio, SVG Export class2.svg Page-1 -->
<svg xmlns="http://www.w3.org/2000/svg" xmlns:xlink="http://www.w3.org/1999/xlink" xmlns:ev="http://www.w3.org/2001/xml-events"
		xmlns:v="http://schemas.microsoft.com/visio/2003/SVGExtensions/" width="5.1639in" height="5.32667in"
		viewBox="0 0 371.801 383.52" xml:space="preserve" color-interpolation-filters="sRGB" class="st17">
	<v:documentProperties v:langID="1033" v:viewMarkup="false"/>

	<style type="text/css">
	<![CDATA[
		.st1 {fill:#ff00ff;fill-opacity:0}
		.st2 {stroke:#000000;stroke-linecap:round;stroke-linejoin:round;stroke-opacity:0;stroke-width:0.72}
		.st3 {fill:url(#grad3-8)}
		.st4 {stroke:#373773;stroke-linecap:round;stroke-linejoin:round;stroke-width:0.72}
		.st5 {fill:url(#grad3-8);stroke:#555555;stroke-linecap:round;stroke-linejoin:round;stroke-width:0.72}
		.st6 {stroke:#555555;stroke-linecap:round;stroke-linejoin:round;stroke-width:0.72}
		.st7 {stroke:#000000;stroke-linecap:round;stroke-linejoin:round;stroke-width:2}
		.st8 {fill:#ffffff;stroke:#000000;stroke-linecap:round;stroke-linejoin:round;stroke-width:0.75}
		.st9 {fill:#ffffff}
		.st10 {stroke:#000000;stroke-linecap:round;stroke-linejoin:round;stroke-width:0.75}
		.st11 {stroke:#000000;stroke-linecap:round;stroke-linejoin:round;stroke-width:0.24}
		.st12 {fill:#000000;font-family:Calibri;font-size:0.666664em}
		.st13 {font-size:1em}
		.st14 {fill:none;stroke:none;stroke-linecap:round;stroke-linejoin:round;stroke-width:0.75}
		.st15 {fill:#000000;font-family:Calibri;font-size:1.00001em}
		.st16 {fill:#0070c0;font-family:Calibri;font-size:1.00001em}
		.st17 {fill:none;fill-rule:evenodd;font-size:12px;overflow:visible;stroke-linecap:square;stroke-miterlimit:3}
	]]>
	</style>

	<defs id="Patterns_And_Gradients">
		<radialGradient id="grad3-8" cx="0.5" cy="0.5" r="0.73">
			<stop offset="0" stop-color="#c6d1e3" stop-opacity="1"/>
			<stop offset="1" stop-color="#4e8ec2" stop-opacity="1"/>
		</radialGradient>
	</defs>
	<g v:mID="0" v:index="1" v:groupContext="foregroundPage">
		<title>Page-1</title>
		<v:pageProperties v:drawingScale="1" v:pageScale="1" v:drawingUnits="19" v:shadowOffsetX="9" v:shadowOffsetY="-9"/>
		<v:layer v:name="Flowchart" v:index="0"/>
		<v:layer v:name="Annotations" v:index="1"/>
		<g id="group1010-1" transform="translate(319.226,-338.906)" v:mID="1010" v:groupContext="group">
			<v:custProps>
				<v:cp v:nameU="Name" v:lbl="Name" v:type="0" v:invis="false" v:ask="false" v:langID="1033"/>
				<v:cp v:nameU="Location" v:lbl="Location" v:type="0" v:invis="false" v:ask="false" v:langID="1033"/>
				<v:cp v:nameU="Building" v:lbl="Building" v:type="0" v:invis="false" v:ask="false" v:langID="1033"/>
				<v:cp v:nameU="Room" v:lbl="Room" v:type="0" v:invis="false" v:ask="false" v:langID="1033"/>
				<v:cp v:nameU="Department" v:lbl="Department" v:type="0" v:invis="false" v:ask="false" v:langID="1033"/>
				<v:cp v:nameU="ShapeClass" v:lbl="ShapeClass" v:type="0" v:invis="true" v:ask="false" v:langID="1033"
						v:val="VT4(Connectivity)"/>
				<v:cp v:nameU="ShapeType" v:lbl="ShapeType" v:type="0" v:invis="true" v:ask="false" v:langID="1033"
						v:val="VT4(User)"/>
			</v:custProps>
			<v:userDefs>
				<v:ud v:nameU="HasText" v:val="VT0(0):5"/>
				<v:ud v:nameU="ShapeClass" v:val="VT0(4):26"/>
				<v:ud v:nameU="ShapeType" v:val="VT0(4):26"/>
				<v:ud v:nameU="SolSH" v:val="VT15({BF0433D9-CD73-4EB5-8390-8653BE590246}):41"/>
				<v:ud v:nameU="visLegendShape" v:val="VT0(2):26"/>
				<v:ud v:nameU="visVersion" v:prompt="" v:val="VT0(15):26"/>
			</v:userDefs>
			<title>User.1010</title>
			<g id="shape1011-2" v:mID="1011" v:groupContext="shape" transform="translate(-6.44072,0)">
				<title>Sheet.1011</title>
				<path d="M6.42 361.76 A11.0036 10.4933 -90 0 0 -0 371.38 L0.03 375.89 A3.57595 3.74988 -180 0 0 1.37 378.87 A1.37709
							 1.44407 -180 0 0 2.9 379.13 A1.84282 1.93245 -180 0 0 3.78 380.6 A26.1421 24.9296 -90 0 0 15.54 383.52
							 A8.44916 8.05727 -90 0 0 19.33 382.46 A1.30631 1.36985 -180 0 0 20.84 382.72 A5.39979 5.66243 -180 0
							 0 23.38 379.94 L23.38 371.98 A10.2866 10.7869 -180 0 0 16.98 362.55 L16.92 362.54 A6.95676 7.29512 -180
							 1 0 6.43 361.76 L6.42 361.76 Z" class="st1"/>
				<path d="M6.42 361.76 A11.0036 10.4933 -90 0 0 -0 371.38 L0.03 375.89 A3.57595 3.74988 -180 0 0 1.37 378.87 A1.37709
							 1.44407 -180 0 0 2.9 379.13 A1.84282 1.93245 -180 0 0 3.78 380.6 A26.1421 24.9296 -90 0 0 15.54 383.52
							 A8.44916 8.05727 -90 0 0 19.33 382.46 A1.30631 1.36985 -180 0 0 20.84 382.72 A5.39979 5.66243 -180 0
							 0 23.38 379.94 L23.38 371.98 A10.2866 10.7869 -180 0 0 16.98 362.55 L16.92 362.54 A6.95676 7.29512 -180
							 1 0 6.43 361.76" class="st2"/>
			</g>
			<g id="shape1012-5" v:mID="1012" v:groupContext="shape" transform="translate(0.0158348,-2.84217E-13)">
				<title>Sheet.1012</title>
				<path d="M3.78 380.6 A24.9296 26.1421 -180 0 0 15.54 383.52 A8.05727 8.44916 -180 0 0 19.33 382.46 A1.30631 1.36985
							 -180 0 0 20.84 382.72 A5.39979 5.66243 -180 0 0 23.38 379.94 L23.38 371.98 A10.2866 10.7869 -180 0 0
							 16.98 362.55 L6.42 361.76 A10.4933 11.0036 -180 0 0 -0 371.38 L0.03 375.89 A3.57595 3.74988 -180 0 0
							 1.37 378.87 A1.37709 1.44407 -180 0 0 2.9 379.13 A1.84282 1.93245 -180 0 0 3.78 380.6 Z" class="st3"/>
				<path d="M3.78 380.6 A24.9296 26.1421 -180 0 0 15.54 383.52 A8.05727 8.44916 -180 0 0 19.33 382.46 A1.30631 1.36985
							 -180 0 0 20.84 382.72 A5.39979 5.66243 -180 0 0 23.38 379.94 L23.38 371.98 A10.2866 10.7869 -180 0 0
							 16.98 362.55M6.42 361.76 A10.4933 11.0036 -180 0 0 -0 371.38 L0.03 375.89 A3.57595 3.74988 -180 0 0
							 1.37 378.87 A1.37709 1.44407 -180 0 0 2.9 379.13 A1.84282 1.93245 -180 0 0 3.78 380.6" class="st4"/>
			</g>
			<g id="shape1013-10" v:mID="1013" v:groupContext="shape" transform="translate(5.05946,-18.8383)">
				<title>Sheet.1013</title>
				<ellipse cx="6.95676" cy="376.225" rx="6.95676" ry="7.29512" class="st5"/>
			</g>
			<g id="shape1014-13" v:mID="1014" v:groupContext="shape" transform="translate(-376.052,320.214) rotate(-81.1625)">
				<title>Sheet.1014</title>
				<path d="M0 383.52 A25.7963 55.1945 0 0 1 13.96 383.52" class="st6"/>
			</g>
			<g id="shape1015-17" v:mID="1015" v:groupContext="shape" transform="translate(-362.105,408.952) rotate(-93.9726)">
				<title>Sheet.1015</title>
				<path d="M0 382.37 A49.9466 106.767 -180 0 0 14.63 382.37" class="st6"/>
			</g>
			<g id="shape1016-21" v:mID="1016" v:groupContext="shape" transform="translate(6.45081,-18.9612)">
				<title>Sheet.1016</title>
				<path d="M-0 380.6 A6.96986 7.30886 -180 0 0 10.5 381.38" class="st6"/>
			</g>
			<g id="shape1017-25" v:mID="1017" v:groupContext="shape" transform="translate(0.0158348,0)">
				<title>Sheet.1017</title>
				<path d="M6.42 361.76 A10.7059 11.2266 -180 0 0 0 371.38 L0.03 375.89 A3.57595 3.74988 -180 0 0 1.37 378.87 A1.37709
							 1.44407 -180 0 0 2.9 379.13 A1.84282 1.93245 -180 0 0 3.78 380.6 A24.9296 26.1421 -180 0 0 15.54 383.52
							 A8.05727 8.44916 -180 0 0 19.33 382.46 A1.30631 1.36985 -180 0 0 20.84 382.72 A5.39979 5.66243 -180
							 0 0 23.38 379.94 L23.38 372.72 A10.184 10.6793 -180 0 0 16.98 362.55 L16.92 362.54 A6.95949 7.29799
							 -180 1 0 6.42 361.76" class="st7"/>
			</g>
		</g>
		<g id="group1018-28" transform="translate(8.25,-294.87)" v:mID="1018" v:groupContext="group" v:layerMember="0">
			<v:userDefs>
				<v:ud v:nameU="visVersion" v:prompt="" v:val="VT0(15):26"/>
				<v:ud v:nameU="ConnGap" v:prompt="" v:val="VT0(0.083333333333333):0"/>
				<v:ud v:nameU="msvDisableCustomConnectionPoints" v:prompt="" v:val="VT0(1):5"/>
			</v:userDefs>
			<title>Human Resources.1018</title>
			<g id="shape1019-29" v:mID="1019" v:groupContext="shape" v:layerMember="0">
				<title>Sheet.1019</title>
				<path d="M2.29 383.52 L69.71 383.52 A2.29254 2.31724 -180 0 0 72 381.2 L72 327.91 A2.29254 2.31724 -180 0 0 69.71
							 325.59 L66.77 325.59 A2.29254 2.31724 0 0 1 64.48 323.27 L64.48 322.84 A2.29254 2.31724 -180 0 0 62.19
							 320.52 L39.55 320.52 A2.29254 2.31724 -180 0 0 37.25 322.84 L37.25 323.27 A2.29254 2.31724 0 0 1 34.96
							 325.59 L2.29 325.59 A2.29254 2.31724 -180 0 0 0 327.91 L0 381.2 A2.29254 2.31724 -180 0 0 2.29 383.52
							 Z" class="st8"/>
			</g>
			<g id="shape1020-31" v:mID="1020" v:groupContext="shape" v:layerMember="0" transform="translate(3.78113,-12.3265)">
				<title>Sheet.1020</title>
				<path d="M60.87 356.79 L49.45 356.79 C48.63 356.79 47.87 357.06 47.27 357.51 C46.85 357.83 46.5 358.24 46.26 358.7
							 C46.02 359.17 45.89 359.69 45.88 360.25 L45.88 373.38 L49.01 373.38 L49.01 383.52 L61.19 383.52 L61.19
							 373.38 L64.44 373.38 L64.44 360.25 C64.44 359.45 64.16 358.71 63.69 358.13 C63.36 357.72 62.94 357.39
							 62.46 357.15 C61.98 356.92 61.44 356.79 60.87 356.79 ZM37.93 356.79 L26.51 356.79 C25.69 356.79 24.93
							 357.06 24.33 357.51 C23.91 357.83 23.56 358.24 23.32 358.7 C23.08 359.17 22.94 359.69 22.94 360.25 L22.94
							 373.38 L26.07 373.38 L26.07 383.52 L38.25 383.52 L38.25 373.38 L41.5 373.38 L41.5 360.25 C41.5 359.45
							 41.22 358.71 40.75 358.13 C40.42 357.72 40 357.39 39.52 357.15 C39.04 356.92 38.5 356.79 37.93 356.79
							 ZM14.99 356.79 L3.57 356.79 C2.74 356.79 1.99 357.06 1.38 357.51 C0.96 357.83 0.62 358.24 0.38 358.7
							 C0.14 359.17 0 359.69 0 360.25 L0 373.38 L3.13 373.38 L3.13 383.52 L15.31 383.52 L15.31 373.38 L18.55
							 373.38 L18.55 360.25 C18.55 359.45 18.27 358.71 17.8 358.13 C17.48 357.72 17.06 357.39 16.58 357.15
							 C16.1 356.92 15.56 356.79 14.99 356.79 ZM60.49 350.29 A5.27101 5.11548 -180 1 0 49.95 350.29 A5.27101
							 5.11548 -180 1 0 60.49 350.29 ZM37.55 350.29 A5.27745 5.11548 -180 1 0 27 350.29 A5.27745 5.11548 -180
							 1 0 37.55 350.29 ZM14.61 350.29 A5.27745 5.11548 -180 1 0 4.06 350.29 A5.27745 5.11548 -180 1 0 14.61
							 350.29 Z" class="st9"/>
				<path d="M60.87 356.79 L49.45 356.79 C48.63 356.79 47.87 357.06 47.27 357.51 C46.85 357.83 46.5 358.24 46.26 358.7
							 C46.02 359.17 45.89 359.69 45.88 360.25 L45.88 373.38 L49.01 373.38 L49.01 383.52 L61.19 383.52 L61.19
							 373.38 L64.44 373.38 L64.44 360.25 C64.44 359.45 64.16 358.71 63.69 358.13 C63.36 357.72 62.94 357.39
							 62.46 357.15 C61.98 356.92 61.44 356.79 60.87 356.79" class="st10"/>
				<path d="M55.16 383.52 L55.16 375.41" class="st10"/>
				<path d="M49.01 373.38 L49.01 366.38" class="st10"/>
				<path d="M61.19 373.38 L61.19 366.38" class="st10"/>
				<path d="M37.93 356.79 L26.51 356.79 C25.69 356.79 24.93 357.06 24.33 357.51 C23.91 357.83 23.56 358.24 23.32 358.7
							 C23.08 359.17 22.94 359.69 22.94 360.25 L22.94 373.38 L26.07 373.38 L26.07 383.52 L38.25 383.52 L38.25
							 373.38 L41.5 373.38 L41.5 360.25 C41.5 359.45 41.22 358.71 40.75 358.13 C40.42 357.72 40 357.39 39.52
							 357.15 C39.04 356.92 38.5 356.79 37.93 356.79" class="st10"/>
				<path d="M32.22 383.52 L32.22 375.41" class="st10"/>
				<path d="M26.07 373.38 L26.07 366.38" class="st10"/>
				<path d="M38.25 373.38 L38.25 366.38" class="st10"/>
				<path d="M14.99 356.79 L3.57 356.79 C2.74 356.79 1.99 357.06 1.38 357.51 C0.96 357.83 0.62 358.24 0.38 358.7 C0.14
							 359.17 0 359.69 0 360.25 L0 373.38 L3.13 373.38 L3.13 383.52 L15.31 383.52 L15.31 373.38 L18.55 373.38
							 L18.55 360.25 C18.55 359.45 18.27 358.71 17.8 358.13 C17.48 357.72 17.06 357.39 16.58 357.15 C16.1 356.92
							 15.56 356.79 14.99 356.79" class="st10"/>
				<path d="M9.28 383.52 L9.28 375.41" class="st10"/>
				<path d="M3.13 373.38 L3.13 366.38" class="st10"/>
				<path d="M15.31 373.38 L15.31 366.38" class="st10"/>
				<path d="M60.49 350.29 A5.27101 5.11548 -180 1 0 49.95 350.29 A5.27101 5.11548 -180 1 0 60.49 350.29" class="st10"/>
				<path d="M37.55 350.29 A5.27745 5.11548 -180 1 0 27 350.29 A5.27745 5.11548 -180 1 0 37.55 350.29" class="st10"/>
				<path d="M14.61 350.29 A5.27745 5.11548 -180 1 0 4.06 350.29 A5.27745 5.11548 -180 1 0 14.61 350.29" class="st10"/>
			</g>
		</g>
		<g id="shape1021-48" v:mID="1021" v:groupContext="shape" v:layerMember="1" transform="translate(8.25,-204.87)">
			<title>15 ruled column.1021</title>
			<desc>S123 Tom S124 Aiden S126 S127 ...</desc>
			<v:userDefs>
				<v:ud v:nameU="AntiScale" v:val="VT0(1):26"/>
				<v:ud v:nameU="visVersion" v:val="VT0(15):26"/>
			</v:userDefs>
			<v:textBlock v:margins="rect(0,4,4,4)" v:verticalAlign="0"/>
			<v:textRect cx="45" cy="338.52" width="90" height="90"/>
			<path d="M0 383.52 L90 383.52 L90 293.52 L0 293.52 L0 383.52 Z" class="st9"/>
			<path d="M0 383.52 L90 383.52 L90 293.52 L0 293.52 L0 383.52" class="st11"/>
			<path d="M0 311.52 L90 311.52" class="st11"/>
			<path d="M0 329.52 L90 329.52" class="st11"/>
			<path d="M0 347.52 L90 347.52" class="st11"/>
			<path d="M0 365.52 L90 365.52" class="st11"/>
			<path d="M0 383.52 L90 383.52" class="st11"/>
			<path d="M0 383.52 L90 383.52" class="st11"/>
			<path d="M0 383.52 L90 383.52" class="st11"/>
			<path d="M0 383.52 L90 383.52" class="st11"/>
			<path d="M0 383.52 L90 383.52" class="st11"/>
			<path d="M0 383.52 L90 383.52" class="st11"/>
			<path d="M0 383.52 L90 383.52" class="st11"/>
			<path d="M0 383.52 L90 383.52" class="st11"/>
			<path d="M0 383.52 L90 383.52" class="st11"/>
			<path d="M0 383.52 L90 383.52" class="st11"/>
			<text x="4" y="307.02" class="st12" v:langID="1033"><v:paragraph v:spLine="0.25"/><v:tabList/>S123 Tom<v:newlineChar/><tspan
						x="4" dy="2.25em" class="st13">S124 Aiden<v:newlineChar/></tspan><tspan x="4" dy="2.25em" class="st13">S126<v:newlineChar/></tspan><tspan
						x="4" dy="2.25em" class="st13">S127<v:newlineChar/></tspan><tspan x="4" dy="2.25em" class="st13">...</tspan></text>		</g>
		<g id="shape1022-70" v:mID="1022" v:groupContext="shape" transform="translate(9.375,-357.87)">
			<title>Sheet.1022</title>
			<desc>MIS3033 30 students</desc>
			<v:textBlock v:margins="rect(4,4,4,4)"/>
			<v:textRect cx="34.875" cy="372.27" width="69.75" height="22.5"/>
			<rect x="0" y="361.02" width="69.75" height="22.5" class="st14"/>
			<text x="13.31" y="368.67" class="st15" v:langID="1033"><v:paragraph v:horizAlign="1"/><v:tabList/>MIS3033<v:newlineChar/><tspan
						x="6.28" dy="1.2em" class="st13">30 students</tspan></text>		</g>
		<g id="group1023-74" transform="translate(259.8,-322.091)" v:mID="1023" v:groupContext="group">
			<v:custProps>
				<v:cp v:nameU="Name" v:lbl="Name" v:type="0" v:invis="false" v:ask="false" v:langID="1033"/>
				<v:cp v:nameU="Location" v:lbl="Location" v:type="0" v:invis="false" v:ask="false" v:langID="1033"/>
				<v:cp v:nameU="Building" v:lbl="Building" v:type="0" v:invis="false" v:ask="false" v:langID="1033"/>
				<v:cp v:nameU="Room" v:lbl="Room" v:type="0" v:invis="false" v:ask="false" v:langID="1033"/>
				<v:cp v:nameU="Department" v:lbl="Department" v:type="0" v:invis="false" v:ask="false" v:langID="1033"/>
				<v:cp v:nameU="ShapeClass" v:lbl="ShapeClass" v:type="0" v:invis="true" v:ask="false" v:langID="1033"
						v:val="VT4(Connectivity)"/>
				<v:cp v:nameU="ShapeType" v:lbl="ShapeType" v:type="0" v:invis="true" v:ask="false" v:langID="1033"
						v:val="VT4(User)"/>
			</v:custProps>
			<v:userDefs>
				<v:ud v:nameU="HasText" v:val="VT0(0):5"/>
				<v:ud v:nameU="ShapeClass" v:val="VT0(4):26"/>
				<v:ud v:nameU="ShapeType" v:val="VT0(4):26"/>
				<v:ud v:nameU="SolSH" v:val="VT15({BF0433D9-CD73-4EB5-8390-8653BE590246}):41"/>
				<v:ud v:nameU="visLegendShape" v:val="VT0(2):26"/>
				<v:ud v:nameU="visVersion" v:prompt="" v:val="VT0(15):26"/>
			</v:userDefs>
			<title>User.1023</title>
			<g id="shape1024-75" v:mID="1024" v:groupContext="shape" transform="translate(-6.44072,0)">
				<title>Sheet.1024</title>
				<path d="M6.42 361.76 A11.0036 10.4933 -90 0 0 -0 371.38 L0.03 375.89 A3.57595 3.74988 -180 0 0 1.37 378.87 A1.37709
							 1.44407 -180 0 0 2.9 379.13 A1.84282 1.93245 -180 0 0 3.78 380.6 A26.1421 24.9296 -90 0 0 15.54 383.52
							 A8.44916 8.05727 -90 0 0 19.33 382.46 A1.30631 1.36985 -180 0 0 20.84 382.72 A5.39979 5.66243 -180 0
							 0 23.38 379.94 L23.38 371.98 A10.2866 10.7869 -180 0 0 16.98 362.55 L16.92 362.54 A6.95676 7.29512 -180
							 1 0 6.43 361.76 L6.42 361.76 Z" class="st1"/>
				<path d="M6.42 361.76 A11.0036 10.4933 -90 0 0 -0 371.38 L0.03 375.89 A3.57595 3.74988 -180 0 0 1.37 378.87 A1.37709
							 1.44407 -180 0 0 2.9 379.13 A1.84282 1.93245 -180 0 0 3.78 380.6 A26.1421 24.9296 -90 0 0 15.54 383.52
							 A8.44916 8.05727 -90 0 0 19.33 382.46 A1.30631 1.36985 -180 0 0 20.84 382.72 A5.39979 5.66243 -180 0
							 0 23.38 379.94 L23.38 371.98 A10.2866 10.7869 -180 0 0 16.98 362.55 L16.92 362.54 A6.95676 7.29512 -180
							 1 0 6.43 361.76" class="st2"/>
			</g>
			<g id="shape1025-78" v:mID="1025" v:groupContext="shape" transform="translate(0.0158348,-2.84217E-13)">
				<title>Sheet.1025</title>
				<path d="M3.78 380.6 A24.9296 26.1421 -180 0 0 15.54 383.52 A8.05727 8.44916 -180 0 0 19.33 382.46 A1.30631 1.36985
							 -180 0 0 20.84 382.72 A5.39979 5.66243 -180 0 0 23.38 379.94 L23.38 371.98 A10.2866 10.7869 -180 0 0
							 16.98 362.55 L6.42 361.76 A10.4933 11.0036 -180 0 0 -0 371.38 L0.03 375.89 A3.57595 3.74988 -180 0 0
							 1.37 378.87 A1.37709 1.44407 -180 0 0 2.9 379.13 A1.84282 1.93245 -180 0 0 3.78 380.6 Z" class="st3"/>
				<path d="M3.78 380.6 A24.9296 26.1421 -180 0 0 15.54 383.52 A8.05727 8.44916 -180 0 0 19.33 382.46 A1.30631 1.36985
							 -180 0 0 20.84 382.72 A5.39979 5.66243 -180 0 0 23.38 379.94 L23.38 371.98 A10.2866 10.7869 -180 0 0
							 16.98 362.55M6.42 361.76 A10.4933 11.0036 -180 0 0 -0 371.38 L0.03 375.89 A3.57595 3.74988 -180 0 0
							 1.37 378.87 A1.37709 1.44407 -180 0 0 2.9 379.13 A1.84282 1.93245 -180 0 0 3.78 380.6" class="st4"/>
			</g>
			<g id="shape1026-82" v:mID="1026" v:groupContext="shape" transform="translate(5.05946,-18.8383)">
				<title>Sheet.1026</title>
				<ellipse cx="6.95676" cy="376.225" rx="6.95676" ry="7.29512" class="st5"/>
			</g>
			<g id="shape1027-85" v:mID="1027" v:groupContext="shape" transform="translate(-376.052,320.214) rotate(-81.1625)">
				<title>Sheet.1027</title>
				<path d="M0 383.52 A25.7963 55.1945 0 0 1 13.96 383.52" class="st6"/>
			</g>
			<g id="shape1028-89" v:mID="1028" v:groupContext="shape" transform="translate(-362.105,408.952) rotate(-93.9726)">
				<title>Sheet.1028</title>
				<path d="M0 382.37 A49.9466 106.767 -180 0 0 14.63 382.37" class="st6"/>
			</g>
			<g id="shape1029-93" v:mID="1029" v:groupContext="shape" transform="translate(6.45081,-18.9612)">
				<title>Sheet.1029</title>
				<path d="M-0 380.6 A6.96986 7.30886 -180 0 0 10.5 381.38" class="st6"/>
			</g>
			<g id="shape1030-97" v:mID="1030" v:groupContext="shape" transform="translate(0.0158348,0)">
				<title>Sheet.1030</title>
				<path d="M6.42 361.76 A10.7059 11.2266 -180 0 0 0 371.38 L0.03 375.89 A3.57595 3.74988 -180 0 0 1.37 378.87 A1.37709
							 1.44407 -180 0 0 2.9 379.13 A1.84282 1.93245 -180 0 0 3.78 380.6 A24.9296 26.1421 -180 0 0 15.54 383.52
							 A8.05727 8.44916 -180 0 0 19.33 382.46 A1.30631 1.36985 -180 0 0 20.84 382.72 A5.39979 5.66243 -180
							 0 0 23.38 379.94 L23.38 372.72 A10.184 10.6793 -180 0 0 16.98 362.55 L16.92 362.54 A6.95949 7.29799
							 -180 1 0 6.42 361.76" class="st7"/>
			</g>
		</g>
		<g id="group1031-100" transform="translate(294.026,-322.091)" v:mID="1031" v:groupContext="group">
			<v:custProps>
				<v:cp v:nameU="Name" v:lbl="Name" v:type="0" v:invis="false" v:ask="false" v:langID="1033"/>
				<v:cp v:nameU="Location" v:lbl="Location" v:type="0" v:invis="false" v:ask="false" v:langID="1033"/>
				<v:cp v:nameU="Building" v:lbl="Building" v:type="0" v:invis="false" v:ask="false" v:langID="1033"/>
				<v:cp v:nameU="Room" v:lbl="Room" v:type="0" v:invis="false" v:ask="false" v:langID="1033"/>
				<v:cp v:nameU="Department" v:lbl="Department" v:type="0" v:invis="false" v:ask="false" v:langID="1033"/>
				<v:cp v:nameU="ShapeClass" v:lbl="ShapeClass" v:type="0" v:invis="true" v:ask="false" v:langID="1033"
						v:val="VT4(Connectivity)"/>
				<v:cp v:nameU="ShapeType" v:lbl="ShapeType" v:type="0" v:invis="true" v:ask="false" v:langID="1033"
						v:val="VT4(User)"/>
			</v:custProps>
			<v:userDefs>
				<v:ud v:nameU="HasText" v:val="VT0(0):5"/>
				<v:ud v:nameU="ShapeClass" v:val="VT0(4):26"/>
				<v:ud v:nameU="ShapeType" v:val="VT0(4):26"/>
				<v:ud v:nameU="SolSH" v:val="VT15({BF0433D9-CD73-4EB5-8390-8653BE590246}):41"/>
				<v:ud v:nameU="visLegendShape" v:val="VT0(2):26"/>
				<v:ud v:nameU="visVersion" v:prompt="" v:val="VT0(15):26"/>
			</v:userDefs>
			<title>User.1031</title>
			<g id="shape1032-101" v:mID="1032" v:groupContext="shape" transform="translate(-6.44072,0)">
				<title>Sheet.1032</title>
				<path d="M6.42 361.76 A11.0036 10.4933 -90 0 0 -0 371.38 L0.03 375.89 A3.57595 3.74988 -180 0 0 1.37 378.87 A1.37709
							 1.44407 -180 0 0 2.9 379.13 A1.84282 1.93245 -180 0 0 3.78 380.6 A26.1421 24.9296 -90 0 0 15.54 383.52
							 A8.44916 8.05727 -90 0 0 19.33 382.46 A1.30631 1.36985 -180 0 0 20.84 382.72 A5.39979 5.66243 -180 0
							 0 23.38 379.94 L23.38 371.98 A10.2866 10.7869 -180 0 0 16.98 362.55 L16.92 362.54 A6.95676 7.29512 -180
							 1 0 6.43 361.76 L6.42 361.76 Z" class="st1"/>
				<path d="M6.42 361.76 A11.0036 10.4933 -90 0 0 -0 371.38 L0.03 375.89 A3.57595 3.74988 -180 0 0 1.37 378.87 A1.37709
							 1.44407 -180 0 0 2.9 379.13 A1.84282 1.93245 -180 0 0 3.78 380.6 A26.1421 24.9296 -90 0 0 15.54 383.52
							 A8.44916 8.05727 -90 0 0 19.33 382.46 A1.30631 1.36985 -180 0 0 20.84 382.72 A5.39979 5.66243 -180 0
							 0 23.38 379.94 L23.38 371.98 A10.2866 10.7869 -180 0 0 16.98 362.55 L16.92 362.54 A6.95676 7.29512 -180
							 1 0 6.43 361.76" class="st2"/>
			</g>
			<g id="shape1033-104" v:mID="1033" v:groupContext="shape" transform="translate(0.0158348,-2.84217E-13)">
				<title>Sheet.1033</title>
				<path d="M3.78 380.6 A24.9296 26.1421 -180 0 0 15.54 383.52 A8.05727 8.44916 -180 0 0 19.33 382.46 A1.30631 1.36985
							 -180 0 0 20.84 382.72 A5.39979 5.66243 -180 0 0 23.38 379.94 L23.38 371.98 A10.2866 10.7869 -180 0 0
							 16.98 362.55 L6.42 361.76 A10.4933 11.0036 -180 0 0 -0 371.38 L0.03 375.89 A3.57595 3.74988 -180 0 0
							 1.37 378.87 A1.37709 1.44407 -180 0 0 2.9 379.13 A1.84282 1.93245 -180 0 0 3.78 380.6 Z" class="st3"/>
				<path d="M3.78 380.6 A24.9296 26.1421 -180 0 0 15.54 383.52 A8.05727 8.44916 -180 0 0 19.33 382.46 A1.30631 1.36985
							 -180 0 0 20.84 382.72 A5.39979 5.66243 -180 0 0 23.38 379.94 L23.38 371.98 A10.2866 10.7869 -180 0 0
							 16.98 362.55M6.42 361.76 A10.4933 11.0036 -180 0 0 -0 371.38 L0.03 375.89 A3.57595 3.74988 -180 0 0
							 1.37 378.87 A1.37709 1.44407 -180 0 0 2.9 379.13 A1.84282 1.93245 -180 0 0 3.78 380.6" class="st4"/>
			</g>
			<g id="shape1034-108" v:mID="1034" v:groupContext="shape" transform="translate(5.05946,-18.8383)">
				<title>Sheet.1034</title>
				<ellipse cx="6.95676" cy="376.225" rx="6.95676" ry="7.29512" class="st5"/>
			</g>
			<g id="shape1035-111" v:mID="1035" v:groupContext="shape" transform="translate(-376.052,320.214) rotate(-81.1625)">
				<title>Sheet.1035</title>
				<path d="M0 383.52 A25.7963 55.1945 0 0 1 13.96 383.52" class="st6"/>
			</g>
			<g id="shape1036-115" v:mID="1036" v:groupContext="shape" transform="translate(-362.105,408.952) rotate(-93.9726)">
				<title>Sheet.1036</title>
				<path d="M0 382.37 A49.9466 106.767 -180 0 0 14.63 382.37" class="st6"/>
			</g>
			<g id="shape1037-119" v:mID="1037" v:groupContext="shape" transform="translate(6.45081,-18.9612)">
				<title>Sheet.1037</title>
				<path d="M-0 380.6 A6.96986 7.30886 -180 0 0 10.5 381.38" class="st6"/>
			</g>
			<g id="shape1038-123" v:mID="1038" v:groupContext="shape" transform="translate(0.0158348,0)">
				<title>Sheet.1038</title>
				<path d="M6.42 361.76 A10.7059 11.2266 -180 0 0 0 371.38 L0.03 375.89 A3.57595 3.74988 -180 0 0 1.37 378.87 A1.37709
							 1.44407 -180 0 0 2.9 379.13 A1.84282 1.93245 -180 0 0 3.78 380.6 A24.9296 26.1421 -180 0 0 15.54 383.52
							 A8.05727 8.44916 -180 0 0 19.33 382.46 A1.30631 1.36985 -180 0 0 20.84 382.72 A5.39979 5.66243 -180
							 0 0 23.38 379.94 L23.38 372.72 A10.184 10.6793 -180 0 0 16.98 362.55 L16.92 362.54 A6.95949 7.29799
							 -180 1 0 6.42 361.76" class="st7"/>
			</g>
		</g>
		<g id="group1039-126" transform="translate(326.426,-298.406)" v:mID="1039" v:groupContext="group">
			<v:custProps>
				<v:cp v:nameU="Name" v:lbl="Name" v:type="0" v:invis="false" v:ask="false" v:langID="1033"/>
				<v:cp v:nameU="Location" v:lbl="Location" v:type="0" v:invis="false" v:ask="false" v:langID="1033"/>
				<v:cp v:nameU="Building" v:lbl="Building" v:type="0" v:invis="false" v:ask="false" v:langID="1033"/>
				<v:cp v:nameU="Room" v:lbl="Room" v:type="0" v:invis="false" v:ask="false" v:langID="1033"/>
				<v:cp v:nameU="Department" v:lbl="Department" v:type="0" v:invis="false" v:ask="false" v:langID="1033"/>
				<v:cp v:nameU="ShapeClass" v:lbl="ShapeClass" v:type="0" v:invis="true" v:ask="false" v:langID="1033"
						v:val="VT4(Connectivity)"/>
				<v:cp v:nameU="ShapeType" v:lbl="ShapeType" v:type="0" v:invis="true" v:ask="false" v:langID="1033"
						v:val="VT4(User)"/>
			</v:custProps>
			<v:userDefs>
				<v:ud v:nameU="HasText" v:val="VT0(0):5"/>
				<v:ud v:nameU="ShapeClass" v:val="VT0(4):26"/>
				<v:ud v:nameU="ShapeType" v:val="VT0(4):26"/>
				<v:ud v:nameU="SolSH" v:val="VT15({BF0433D9-CD73-4EB5-8390-8653BE590246}):41"/>
				<v:ud v:nameU="visLegendShape" v:val="VT0(2):26"/>
				<v:ud v:nameU="visVersion" v:prompt="" v:val="VT0(15):26"/>
			</v:userDefs>
			<title>User.1039</title>
			<g id="shape1040-127" v:mID="1040" v:groupContext="shape" transform="translate(-6.44072,0)">
				<title>Sheet.1040</title>
				<path d="M6.42 361.76 A11.0036 10.4933 -90 0 0 -0 371.38 L0.03 375.89 A3.57595 3.74988 -180 0 0 1.37 378.87 A1.37709
							 1.44407 -180 0 0 2.9 379.13 A1.84282 1.93245 -180 0 0 3.78 380.6 A26.1421 24.9296 -90 0 0 15.54 383.52
							 A8.44916 8.05727 -90 0 0 19.33 382.46 A1.30631 1.36985 -180 0 0 20.84 382.72 A5.39979 5.66243 -180 0
							 0 23.38 379.94 L23.38 371.98 A10.2866 10.7869 -180 0 0 16.98 362.55 L16.92 362.54 A6.95676 7.29512 -180
							 1 0 6.43 361.76 L6.42 361.76 Z" class="st1"/>
				<path d="M6.42 361.76 A11.0036 10.4933 -90 0 0 -0 371.38 L0.03 375.89 A3.57595 3.74988 -180 0 0 1.37 378.87 A1.37709
							 1.44407 -180 0 0 2.9 379.13 A1.84282 1.93245 -180 0 0 3.78 380.6 A26.1421 24.9296 -90 0 0 15.54 383.52
							 A8.44916 8.05727 -90 0 0 19.33 382.46 A1.30631 1.36985 -180 0 0 20.84 382.72 A5.39979 5.66243 -180 0
							 0 23.38 379.94 L23.38 371.98 A10.2866 10.7869 -180 0 0 16.98 362.55 L16.92 362.54 A6.95676 7.29512 -180
							 1 0 6.43 361.76" class="st2"/>
			</g>
			<g id="shape1041-130" v:mID="1041" v:groupContext="shape" transform="translate(0.0158348,-2.84217E-13)">
				<title>Sheet.1041</title>
				<path d="M3.78 380.6 A24.9296 26.1421 -180 0 0 15.54 383.52 A8.05727 8.44916 -180 0 0 19.33 382.46 A1.30631 1.36985
							 -180 0 0 20.84 382.72 A5.39979 5.66243 -180 0 0 23.38 379.94 L23.38 371.98 A10.2866 10.7869 -180 0 0
							 16.98 362.55 L6.42 361.76 A10.4933 11.0036 -180 0 0 -0 371.38 L0.03 375.89 A3.57595 3.74988 -180 0 0
							 1.37 378.87 A1.37709 1.44407 -180 0 0 2.9 379.13 A1.84282 1.93245 -180 0 0 3.78 380.6 Z" class="st3"/>
				<path d="M3.78 380.6 A24.9296 26.1421 -180 0 0 15.54 383.52 A8.05727 8.44916 -180 0 0 19.33 382.46 A1.30631 1.36985
							 -180 0 0 20.84 382.72 A5.39979 5.66243 -180 0 0 23.38 379.94 L23.38 371.98 A10.2866 10.7869 -180 0 0
							 16.98 362.55M6.42 361.76 A10.4933 11.0036 -180 0 0 -0 371.38 L0.03 375.89 A3.57595 3.74988 -180 0 0
							 1.37 378.87 A1.37709 1.44407 -180 0 0 2.9 379.13 A1.84282 1.93245 -180 0 0 3.78 380.6" class="st4"/>
			</g>
			<g id="shape1042-134" v:mID="1042" v:groupContext="shape" transform="translate(5.05946,-18.8383)">
				<title>Sheet.1042</title>
				<ellipse cx="6.95676" cy="376.225" rx="6.95676" ry="7.29512" class="st5"/>
			</g>
			<g id="shape1043-137" v:mID="1043" v:groupContext="shape" transform="translate(-376.052,320.214) rotate(-81.1625)">
				<title>Sheet.1043</title>
				<path d="M0 383.52 A25.7963 55.1945 0 0 1 13.96 383.52" class="st6"/>
			</g>
			<g id="shape1044-141" v:mID="1044" v:groupContext="shape" transform="translate(-362.105,408.952) rotate(-93.9726)">
				<title>Sheet.1044</title>
				<path d="M0 382.37 A49.9466 106.767 -180 0 0 14.63 382.37" class="st6"/>
			</g>
			<g id="shape1045-145" v:mID="1045" v:groupContext="shape" transform="translate(6.45081,-18.9612)">
				<title>Sheet.1045</title>
				<path d="M-0 380.6 A6.96986 7.30886 -180 0 0 10.5 381.38" class="st6"/>
			</g>
			<g id="shape1046-149" v:mID="1046" v:groupContext="shape" transform="translate(0.0158348,0)">
				<title>Sheet.1046</title>
				<path d="M6.42 361.76 A10.7059 11.2266 -180 0 0 0 371.38 L0.03 375.89 A3.57595 3.74988 -180 0 0 1.37 378.87 A1.37709
							 1.44407 -180 0 0 2.9 379.13 A1.84282 1.93245 -180 0 0 3.78 380.6 A24.9296 26.1421 -180 0 0 15.54 383.52
							 A8.05727 8.44916 -180 0 0 19.33 382.46 A1.30631 1.36985 -180 0 0 20.84 382.72 A5.39979 5.66243 -180
							 0 0 23.38 379.94 L23.38 372.72 A10.184 10.6793 -180 0 0 16.98 362.55 L16.92 362.54 A6.95949 7.29799
							 -180 1 0 6.42 361.76" class="st7"/>
			</g>
		</g>
		<g id="group1047-152" transform="translate(289.526,-281.691)" v:mID="1047" v:groupContext="group">
			<v:custProps>
				<v:cp v:nameU="Name" v:lbl="Name" v:type="0" v:invis="false" v:ask="false" v:langID="1033"/>
				<v:cp v:nameU="Location" v:lbl="Location" v:type="0" v:invis="false" v:ask="false" v:langID="1033"/>
				<v:cp v:nameU="Building" v:lbl="Building" v:type="0" v:invis="false" v:ask="false" v:langID="1033"/>
				<v:cp v:nameU="Room" v:lbl="Room" v:type="0" v:invis="false" v:ask="false" v:langID="1033"/>
				<v:cp v:nameU="Department" v:lbl="Department" v:type="0" v:invis="false" v:ask="false" v:langID="1033"/>
				<v:cp v:nameU="ShapeClass" v:lbl="ShapeClass" v:type="0" v:invis="true" v:ask="false" v:langID="1033"
						v:val="VT4(Connectivity)"/>
				<v:cp v:nameU="ShapeType" v:lbl="ShapeType" v:type="0" v:invis="true" v:ask="false" v:langID="1033"
						v:val="VT4(User)"/>
			</v:custProps>
			<v:userDefs>
				<v:ud v:nameU="HasText" v:val="VT0(0):5"/>
				<v:ud v:nameU="ShapeClass" v:val="VT0(4):26"/>
				<v:ud v:nameU="ShapeType" v:val="VT0(4):26"/>
				<v:ud v:nameU="SolSH" v:val="VT15({BF0433D9-CD73-4EB5-8390-8653BE590246}):41"/>
				<v:ud v:nameU="visLegendShape" v:val="VT0(2):26"/>
				<v:ud v:nameU="visVersion" v:prompt="" v:val="VT0(15):26"/>
			</v:userDefs>
			<title>User.1047</title>
			<g id="shape1048-153" v:mID="1048" v:groupContext="shape" transform="translate(-6.44072,0)">
				<title>Sheet.1048</title>
				<path d="M6.42 361.76 A11.0036 10.4933 -90 0 0 -0 371.38 L0.03 375.89 A3.57595 3.74988 -180 0 0 1.37 378.87 A1.37709
							 1.44407 -180 0 0 2.9 379.13 A1.84282 1.93245 -180 0 0 3.78 380.6 A26.1421 24.9296 -90 0 0 15.54 383.52
							 A8.44916 8.05727 -90 0 0 19.33 382.46 A1.30631 1.36985 -180 0 0 20.84 382.72 A5.39979 5.66243 -180 0
							 0 23.38 379.94 L23.38 371.98 A10.2866 10.7869 -180 0 0 16.98 362.55 L16.92 362.54 A6.95676 7.29512 -180
							 1 0 6.43 361.76 L6.42 361.76 Z" class="st1"/>
				<path d="M6.42 361.76 A11.0036 10.4933 -90 0 0 -0 371.38 L0.03 375.89 A3.57595 3.74988 -180 0 0 1.37 378.87 A1.37709
							 1.44407 -180 0 0 2.9 379.13 A1.84282 1.93245 -180 0 0 3.78 380.6 A26.1421 24.9296 -90 0 0 15.54 383.52
							 A8.44916 8.05727 -90 0 0 19.33 382.46 A1.30631 1.36985 -180 0 0 20.84 382.72 A5.39979 5.66243 -180 0
							 0 23.38 379.94 L23.38 371.98 A10.2866 10.7869 -180 0 0 16.98 362.55 L16.92 362.54 A6.95676 7.29512 -180
							 1 0 6.43 361.76" class="st2"/>
			</g>
			<g id="shape1049-156" v:mID="1049" v:groupContext="shape" transform="translate(0.0158348,-2.84217E-13)">
				<title>Sheet.1049</title>
				<path d="M3.78 380.6 A24.9296 26.1421 -180 0 0 15.54 383.52 A8.05727 8.44916 -180 0 0 19.33 382.46 A1.30631 1.36985
							 -180 0 0 20.84 382.72 A5.39979 5.66243 -180 0 0 23.38 379.94 L23.38 371.98 A10.2866 10.7869 -180 0 0
							 16.98 362.55 L6.42 361.76 A10.4933 11.0036 -180 0 0 -0 371.38 L0.03 375.89 A3.57595 3.74988 -180 0 0
							 1.37 378.87 A1.37709 1.44407 -180 0 0 2.9 379.13 A1.84282 1.93245 -180 0 0 3.78 380.6 Z" class="st3"/>
				<path d="M3.78 380.6 A24.9296 26.1421 -180 0 0 15.54 383.52 A8.05727 8.44916 -180 0 0 19.33 382.46 A1.30631 1.36985
							 -180 0 0 20.84 382.72 A5.39979 5.66243 -180 0 0 23.38 379.94 L23.38 371.98 A10.2866 10.7869 -180 0 0
							 16.98 362.55M6.42 361.76 A10.4933 11.0036 -180 0 0 -0 371.38 L0.03 375.89 A3.57595 3.74988 -180 0 0
							 1.37 378.87 A1.37709 1.44407 -180 0 0 2.9 379.13 A1.84282 1.93245 -180 0 0 3.78 380.6" class="st4"/>
			</g>
			<g id="shape1050-160" v:mID="1050" v:groupContext="shape" transform="translate(5.05946,-18.8383)">
				<title>Sheet.1050</title>
				<ellipse cx="6.95676" cy="376.225" rx="6.95676" ry="7.29512" class="st5"/>
			</g>
			<g id="shape1051-163" v:mID="1051" v:groupContext="shape" transform="translate(-376.052,320.214) rotate(-81.1625)">
				<title>Sheet.1051</title>
				<path d="M0 383.52 A25.7963 55.1945 0 0 1 13.96 383.52" class="st6"/>
			</g>
			<g id="shape1052-167" v:mID="1052" v:groupContext="shape" transform="translate(-362.105,408.952) rotate(-93.9726)">
				<title>Sheet.1052</title>
				<path d="M0 382.37 A49.9466 106.767 -180 0 0 14.63 382.37" class="st6"/>
			</g>
			<g id="shape1053-171" v:mID="1053" v:groupContext="shape" transform="translate(6.45081,-18.9612)">
				<title>Sheet.1053</title>
				<path d="M-0 380.6 A6.96986 7.30886 -180 0 0 10.5 381.38" class="st6"/>
			</g>
			<g id="shape1054-175" v:mID="1054" v:groupContext="shape" transform="translate(0.0158348,0)">
				<title>Sheet.1054</title>
				<path d="M6.42 361.76 A10.7059 11.2266 -180 0 0 0 371.38 L0.03 375.89 A3.57595 3.74988 -180 0 0 1.37 378.87 A1.37709
							 1.44407 -180 0 0 2.9 379.13 A1.84282 1.93245 -180 0 0 3.78 380.6 A24.9296 26.1421 -180 0 0 15.54 383.52
							 A8.05727 8.44916 -180 0 0 19.33 382.46 A1.30631 1.36985 -180 0 0 20.84 382.72 A5.39979 5.66243 -180
							 0 0 23.38 379.94 L23.38 372.72 A10.184 10.6793 -180 0 0 16.98 362.55 L16.92 362.54 A6.95949 7.29799
							 -180 1 0 6.42 361.76" class="st7"/>
			</g>
		</g>
		<g id="group1055-178" transform="translate(317.426,-261.663)" v:mID="1055" v:groupContext="group">
			<v:custProps>
				<v:cp v:nameU="Name" v:lbl="Name" v:type="0" v:invis="false" v:ask="false" v:langID="1033"/>
				<v:cp v:nameU="Location" v:lbl="Location" v:type="0" v:invis="false" v:ask="false" v:langID="1033"/>
				<v:cp v:nameU="Building" v:lbl="Building" v:type="0" v:invis="false" v:ask="false" v:langID="1033"/>
				<v:cp v:nameU="Room" v:lbl="Room" v:type="0" v:invis="false" v:ask="false" v:langID="1033"/>
				<v:cp v:nameU="Department" v:lbl="Department" v:type="0" v:invis="false" v:ask="false" v:langID="1033"/>
				<v:cp v:nameU="ShapeClass" v:lbl="ShapeClass" v:type="0" v:invis="true" v:ask="false" v:langID="1033"
						v:val="VT4(Connectivity)"/>
				<v:cp v:nameU="ShapeType" v:lbl="ShapeType" v:type="0" v:invis="true" v:ask="false" v:langID="1033"
						v:val="VT4(User)"/>
			</v:custProps>
			<v:userDefs>
				<v:ud v:nameU="HasText" v:val="VT0(0):5"/>
				<v:ud v:nameU="ShapeClass" v:val="VT0(4):26"/>
				<v:ud v:nameU="ShapeType" v:val="VT0(4):26"/>
				<v:ud v:nameU="SolSH" v:val="VT15({BF0433D9-CD73-4EB5-8390-8653BE590246}):41"/>
				<v:ud v:nameU="visLegendShape" v:val="VT0(2):26"/>
				<v:ud v:nameU="visVersion" v:prompt="" v:val="VT0(15):26"/>
			</v:userDefs>
			<title>User.1055</title>
			<g id="shape1056-179" v:mID="1056" v:groupContext="shape" transform="translate(-6.44072,0)">
				<title>Sheet.1056</title>
				<path d="M6.42 361.76 A11.0036 10.4933 -90 0 0 -0 371.38 L0.03 375.89 A3.57595 3.74988 -180 0 0 1.37 378.87 A1.37709
							 1.44407 -180 0 0 2.9 379.13 A1.84282 1.93245 -180 0 0 3.78 380.6 A26.1421 24.9296 -90 0 0 15.54 383.52
							 A8.44916 8.05727 -90 0 0 19.33 382.46 A1.30631 1.36985 -180 0 0 20.84 382.72 A5.39979 5.66243 -180 0
							 0 23.38 379.94 L23.38 371.98 A10.2866 10.7869 -180 0 0 16.98 362.55 L16.92 362.54 A6.95676 7.29512 -180
							 1 0 6.43 361.76 L6.42 361.76 Z" class="st1"/>
				<path d="M6.42 361.76 A11.0036 10.4933 -90 0 0 -0 371.38 L0.03 375.89 A3.57595 3.74988 -180 0 0 1.37 378.87 A1.37709
							 1.44407 -180 0 0 2.9 379.13 A1.84282 1.93245 -180 0 0 3.78 380.6 A26.1421 24.9296 -90 0 0 15.54 383.52
							 A8.44916 8.05727 -90 0 0 19.33 382.46 A1.30631 1.36985 -180 0 0 20.84 382.72 A5.39979 5.66243 -180 0
							 0 23.38 379.94 L23.38 371.98 A10.2866 10.7869 -180 0 0 16.98 362.55 L16.92 362.54 A6.95676 7.29512 -180
							 1 0 6.43 361.76" class="st2"/>
			</g>
			<g id="shape1057-182" v:mID="1057" v:groupContext="shape" transform="translate(0.0158348,-2.84217E-13)">
				<title>Sheet.1057</title>
				<path d="M3.78 380.6 A24.9296 26.1421 -180 0 0 15.54 383.52 A8.05727 8.44916 -180 0 0 19.33 382.46 A1.30631 1.36985
							 -180 0 0 20.84 382.72 A5.39979 5.66243 -180 0 0 23.38 379.94 L23.38 371.98 A10.2866 10.7869 -180 0 0
							 16.98 362.55 L6.42 361.76 A10.4933 11.0036 -180 0 0 -0 371.38 L0.03 375.89 A3.57595 3.74988 -180 0 0
							 1.37 378.87 A1.37709 1.44407 -180 0 0 2.9 379.13 A1.84282 1.93245 -180 0 0 3.78 380.6 Z" class="st3"/>
				<path d="M3.78 380.6 A24.9296 26.1421 -180 0 0 15.54 383.52 A8.05727 8.44916 -180 0 0 19.33 382.46 A1.30631 1.36985
							 -180 0 0 20.84 382.72 A5.39979 5.66243 -180 0 0 23.38 379.94 L23.38 371.98 A10.2866 10.7869 -180 0 0
							 16.98 362.55M6.42 361.76 A10.4933 11.0036 -180 0 0 -0 371.38 L0.03 375.89 A3.57595 3.74988 -180 0 0
							 1.37 378.87 A1.37709 1.44407 -180 0 0 2.9 379.13 A1.84282 1.93245 -180 0 0 3.78 380.6" class="st4"/>
			</g>
			<g id="shape1058-186" v:mID="1058" v:groupContext="shape" transform="translate(5.05946,-18.8383)">
				<title>Sheet.1058</title>
				<ellipse cx="6.95676" cy="376.225" rx="6.95676" ry="7.29512" class="st5"/>
			</g>
			<g id="shape1059-189" v:mID="1059" v:groupContext="shape" transform="translate(-376.052,320.214) rotate(-81.1625)">
				<title>Sheet.1059</title>
				<path d="M0 383.52 A25.7963 55.1945 0 0 1 13.96 383.52" class="st6"/>
			</g>
			<g id="shape1060-193" v:mID="1060" v:groupContext="shape" transform="translate(-362.105,408.952) rotate(-93.9726)">
				<title>Sheet.1060</title>
				<path d="M0 382.37 A49.9466 106.767 -180 0 0 14.63 382.37" class="st6"/>
			</g>
			<g id="shape1061-197" v:mID="1061" v:groupContext="shape" transform="translate(6.45081,-18.9612)">
				<title>Sheet.1061</title>
				<path d="M-0 380.6 A6.96986 7.30886 -180 0 0 10.5 381.38" class="st6"/>
			</g>
			<g id="shape1062-201" v:mID="1062" v:groupContext="shape" transform="translate(0.0158348,0)">
				<title>Sheet.1062</title>
				<path d="M6.42 361.76 A10.7059 11.2266 -180 0 0 0 371.38 L0.03 375.89 A3.57595 3.74988 -180 0 0 1.37 378.87 A1.37709
							 1.44407 -180 0 0 2.9 379.13 A1.84282 1.93245 -180 0 0 3.78 380.6 A24.9296 26.1421 -180 0 0 15.54 383.52
							 A8.05727 8.44916 -180 0 0 19.33 382.46 A1.30631 1.36985 -180 0 0 20.84 382.72 A5.39979 5.66243 -180
							 0 0 23.38 379.94 L23.38 372.72 A10.184 10.6793 -180 0 0 16.98 362.55 L16.92 362.54 A6.95949 7.29799
							 -180 1 0 6.42 361.76" class="st7"/>
			</g>
		</g>
		<g id="shape1063-204" v:mID="1063" v:groupContext="shape" transform="translate(253.5,-354.656)">
			<title>Sheet.1063</title>
			<desc>S123</desc>
			<v:textBlock v:margins="rect(4,4,4,4)"/>
			<v:textRect cx="18" cy="376.77" width="36.01" height="13.5"/>
			<rect x="0" y="370.02" width="36" height="13.5" class="st14"/>
			<text x="6.12" y="380.37" class="st15" v:langID="1033"><v:paragraph v:horizAlign="1"/><v:tabList/>S123</text>		</g>
		<g id="shape1064-207" v:mID="1064" v:groupContext="shape" transform="translate(287.726,-356.745)">
			<title>Sheet.1064</title>
			<desc>S124</desc>
			<v:textBlock v:margins="rect(4,4,4,4)"/>
			<v:textRect cx="18" cy="376.77" width="36.01" height="13.5"/>
			<rect x="0" y="370.02" width="36" height="13.5" class="st14"/>
			<text x="6.12" y="380.37" class="st15" v:langID="1033"><v:paragraph v:horizAlign="1"/><v:tabList/>S124</text>		</g>
		<g id="shape1065-210" v:mID="1065" v:groupContext="shape" transform="translate(267.926,-226.406)">
			<title>Sheet.1065</title>
			<desc>Assume there are 36 students at OU.</desc>
			<v:textBlock v:margins="rect(4,4,4,4)"/>
			<v:textRect cx="51.75" cy="368.895" width="103.51" height="29.25"/>
			<rect x="0" y="354.27" width="103.5" height="29.25" class="st14"/>
			<text x="8.77" y="365.3" class="st16" v:langID="1033"><v:paragraph v:horizAlign="1"/><v:tabList/>Assume there are <tspan
						x="6.22" dy="1.2em" class="st13">36 students at OU.</tspan></text>		</g>
		<g id="group1066-214" transform="translate(6,-90.12)" v:mID="1066" v:groupContext="group" v:layerMember="0">
			<v:userDefs>
				<v:ud v:nameU="visVersion" v:prompt="" v:val="VT0(15):26"/>
				<v:ud v:nameU="ConnGap" v:prompt="" v:val="VT0(0.083333333333333):0"/>
				<v:ud v:nameU="msvDisableCustomConnectionPoints" v:prompt="" v:val="VT0(1):5"/>
			</v:userDefs>
			<title>Human Resources.1066</title>
			<g id="shape1067-215" v:mID="1067" v:groupContext="shape" v:layerMember="0">
				<title>Sheet.1067</title>
				<path d="M2.29 383.52 L69.71 383.52 A2.29254 2.31724 -180 0 0 72 381.2 L72 327.91 A2.29254 2.31724 -180 0 0 69.71
							 325.59 L66.77 325.59 A2.29254 2.31724 0 0 1 64.48 323.27 L64.48 322.84 A2.29254 2.31724 -180 0 0 62.19
							 320.52 L39.55 320.52 A2.29254 2.31724 -180 0 0 37.25 322.84 L37.25 323.27 A2.29254 2.31724 0 0 1 34.96
							 325.59 L2.29 325.59 A2.29254 2.31724 -180 0 0 0 327.91 L0 381.2 A2.29254 2.31724 -180 0 0 2.29 383.52
							 Z" class="st8"/>
			</g>
			<g id="shape1068-217" v:mID="1068" v:groupContext="shape" v:layerMember="0" transform="translate(3.78113,-12.3265)">
				<title>Sheet.1068</title>
				<path d="M60.87 356.79 L49.45 356.79 C48.63 356.79 47.87 357.06 47.27 357.51 C46.85 357.83 46.5 358.24 46.26 358.7
							 C46.02 359.17 45.89 359.69 45.88 360.25 L45.88 373.38 L49.01 373.38 L49.01 383.52 L61.19 383.52 L61.19
							 373.38 L64.44 373.38 L64.44 360.25 C64.44 359.45 64.16 358.71 63.69 358.13 C63.36 357.72 62.94 357.39
							 62.46 357.15 C61.98 356.92 61.44 356.79 60.87 356.79 ZM37.93 356.79 L26.51 356.79 C25.69 356.79 24.93
							 357.06 24.33 357.51 C23.91 357.83 23.56 358.24 23.32 358.7 C23.08 359.17 22.94 359.69 22.94 360.25 L22.94
							 373.38 L26.07 373.38 L26.07 383.52 L38.25 383.52 L38.25 373.38 L41.5 373.38 L41.5 360.25 C41.5 359.45
							 41.22 358.71 40.75 358.13 C40.42 357.72 40 357.39 39.52 357.15 C39.04 356.92 38.5 356.79 37.93 356.79
							 ZM14.99 356.79 L3.57 356.79 C2.74 356.79 1.99 357.06 1.38 357.51 C0.96 357.83 0.62 358.24 0.38 358.7
							 C0.14 359.17 0 359.69 0 360.25 L0 373.38 L3.13 373.38 L3.13 383.52 L15.31 383.52 L15.31 373.38 L18.55
							 373.38 L18.55 360.25 C18.55 359.45 18.27 358.71 17.8 358.13 C17.48 357.72 17.06 357.39 16.58 357.15
							 C16.1 356.92 15.56 356.79 14.99 356.79 ZM60.49 350.29 A5.27101 5.11548 -180 1 0 49.95 350.29 A5.27101
							 5.11548 -180 1 0 60.49 350.29 ZM37.55 350.29 A5.27745 5.11548 -180 1 0 27 350.29 A5.27745 5.11548 -180
							 1 0 37.55 350.29 ZM14.61 350.29 A5.27745 5.11548 -180 1 0 4.06 350.29 A5.27745 5.11548 -180 1 0 14.61
							 350.29 Z" class="st9"/>
				<path d="M60.87 356.79 L49.45 356.79 C48.63 356.79 47.87 357.06 47.27 357.51 C46.85 357.83 46.5 358.24 46.26 358.7
							 C46.02 359.17 45.89 359.69 45.88 360.25 L45.88 373.38 L49.01 373.38 L49.01 383.52 L61.19 383.52 L61.19
							 373.38 L64.44 373.38 L64.44 360.25 C64.44 359.45 64.16 358.71 63.69 358.13 C63.36 357.72 62.94 357.39
							 62.46 357.15 C61.98 356.92 61.44 356.79 60.87 356.79" class="st10"/>
				<path d="M55.16 383.52 L55.16 375.41" class="st10"/>
				<path d="M49.01 373.38 L49.01 366.38" class="st10"/>
				<path d="M61.19 373.38 L61.19 366.38" class="st10"/>
				<path d="M37.93 356.79 L26.51 356.79 C25.69 356.79 24.93 357.06 24.33 357.51 C23.91 357.83 23.56 358.24 23.32 358.7
							 C23.08 359.17 22.94 359.69 22.94 360.25 L22.94 373.38 L26.07 373.38 L26.07 383.52 L38.25 383.52 L38.25
							 373.38 L41.5 373.38 L41.5 360.25 C41.5 359.45 41.22 358.71 40.75 358.13 C40.42 357.72 40 357.39 39.52
							 357.15 C39.04 356.92 38.5 356.79 37.93 356.79" class="st10"/>
				<path d="M32.22 383.52 L32.22 375.41" class="st10"/>
				<path d="M26.07 373.38 L26.07 366.38" class="st10"/>
				<path d="M38.25 373.38 L38.25 366.38" class="st10"/>
				<path d="M14.99 356.79 L3.57 356.79 C2.74 356.79 1.99 357.06 1.38 357.51 C0.96 357.83 0.62 358.24 0.38 358.7 C0.14
							 359.17 0 359.69 0 360.25 L0 373.38 L3.13 373.38 L3.13 383.52 L15.31 383.52 L15.31 373.38 L18.55 373.38
							 L18.55 360.25 C18.55 359.45 18.27 358.71 17.8 358.13 C17.48 357.72 17.06 357.39 16.58 357.15 C16.1 356.92
							 15.56 356.79 14.99 356.79" class="st10"/>
				<path d="M9.28 383.52 L9.28 375.41" class="st10"/>
				<path d="M3.13 373.38 L3.13 366.38" class="st10"/>
				<path d="M15.31 373.38 L15.31 366.38" class="st10"/>
				<path d="M60.49 350.29 A5.27101 5.11548 -180 1 0 49.95 350.29 A5.27101 5.11548 -180 1 0 60.49 350.29" class="st10"/>
				<path d="M37.55 350.29 A5.27745 5.11548 -180 1 0 27 350.29 A5.27745 5.11548 -180 1 0 37.55 350.29" class="st10"/>
				<path d="M14.61 350.29 A5.27745 5.11548 -180 1 0 4.06 350.29 A5.27745 5.11548 -180 1 0 14.61 350.29" class="st10"/>
			</g>
		</g>
		<g id="shape1069-234" v:mID="1069" v:groupContext="shape" v:layerMember="1" transform="translate(6,-0.12)">
			<title>15 ruled column.1069</title>
			<desc>S123 Tom S124 Aiden S126 S127 ...</desc>
			<v:userDefs>
				<v:ud v:nameU="AntiScale" v:val="VT0(1):26"/>
				<v:ud v:nameU="visVersion" v:val="VT0(15):26"/>
			</v:userDefs>
			<v:textBlock v:margins="rect(0,4,4,4)" v:verticalAlign="0"/>
			<v:textRect cx="45" cy="338.52" width="90" height="90"/>
			<path d="M0 383.52 L90 383.52 L90 293.52 L0 293.52 L0 383.52 Z" class="st9"/>
			<path d="M0 383.52 L90 383.52 L90 293.52 L0 293.52 L0 383.52" class="st11"/>
			<path d="M0 311.52 L90 311.52" class="st11"/>
			<path d="M0 329.52 L90 329.52" class="st11"/>
			<path d="M0 347.52 L90 347.52" class="st11"/>
			<path d="M0 365.52 L90 365.52" class="st11"/>
			<path d="M0 383.52 L90 383.52" class="st11"/>
			<path d="M0 383.52 L90 383.52" class="st11"/>
			<path d="M0 383.52 L90 383.52" class="st11"/>
			<path d="M0 383.52 L90 383.52" class="st11"/>
			<path d="M0 383.52 L90 383.52" class="st11"/>
			<path d="M0 383.52 L90 383.52" class="st11"/>
			<path d="M0 383.52 L90 383.52" class="st11"/>
			<path d="M0 383.52 L90 383.52" class="st11"/>
			<path d="M0 383.52 L90 383.52" class="st11"/>
			<path d="M0 383.52 L90 383.52" class="st11"/>
			<text x="4" y="307.02" class="st12" v:langID="1033"><v:paragraph v:spLine="0.25"/><v:tabList/>S123 Tom<v:newlineChar/><tspan
						x="4" dy="2.25em" class="st13">S124 Aiden<v:newlineChar/></tspan><tspan x="4" dy="2.25em" class="st13">S126<v:newlineChar/></tspan><tspan
						x="4" dy="2.25em" class="st13">S127<v:newlineChar/></tspan><tspan x="4" dy="2.25em" class="st13">...</tspan></text>		</g>
		<g id="shape1070-256" v:mID="1070" v:groupContext="shape" transform="translate(7.125,-153.12)">
			<title>Sheet.1070</title>
			<desc>MIS3013 20 students</desc>
			<v:textBlock v:margins="rect(4,4,4,4)"/>
			<v:textRect cx="34.875" cy="372.27" width="69.75" height="22.5"/>
			<rect x="0" y="361.02" width="69.75" height="22.5" class="st14"/>
			<text x="13.31" y="368.67" class="st15" v:langID="1033"><v:paragraph v:horizAlign="1"/><v:tabList/>MIS3013<v:newlineChar/><tspan
						x="6.28" dy="1.2em" class="st13">20 students</tspan></text>		</g>
		<g id="group1071-260" transform="translate(170.25,-87.87)" v:mID="1071" v:groupContext="group" v:layerMember="0">
			<v:userDefs>
				<v:ud v:nameU="visVersion" v:prompt="" v:val="VT0(15):26"/>
				<v:ud v:nameU="ConnGap" v:prompt="" v:val="VT0(0.083333333333333):0"/>
				<v:ud v:nameU="msvDisableCustomConnectionPoints" v:prompt="" v:val="VT0(1):5"/>
			</v:userDefs>
			<title>Human Resources.1071</title>
			<g id="shape1072-261" v:mID="1072" v:groupContext="shape" v:layerMember="0">
				<title>Sheet.1072</title>
				<path d="M2.29 383.52 L69.71 383.52 A2.29254 2.31724 -180 0 0 72 381.2 L72 327.91 A2.29254 2.31724 -180 0 0 69.71
							 325.59 L66.77 325.59 A2.29254 2.31724 0 0 1 64.48 323.27 L64.48 322.84 A2.29254 2.31724 -180 0 0 62.19
							 320.52 L39.55 320.52 A2.29254 2.31724 -180 0 0 37.25 322.84 L37.25 323.27 A2.29254 2.31724 0 0 1 34.96
							 325.59 L2.29 325.59 A2.29254 2.31724 -180 0 0 0 327.91 L0 381.2 A2.29254 2.31724 -180 0 0 2.29 383.52
							 Z" class="st8"/>
			</g>
			<g id="shape1073-263" v:mID="1073" v:groupContext="shape" v:layerMember="0" transform="translate(3.78113,-12.3265)">
				<title>Sheet.1073</title>
				<path d="M60.87 356.79 L49.45 356.79 C48.63 356.79 47.87 357.06 47.27 357.51 C46.85 357.83 46.5 358.24 46.26 358.7
							 C46.02 359.17 45.89 359.69 45.88 360.25 L45.88 373.38 L49.01 373.38 L49.01 383.52 L61.19 383.52 L61.19
							 373.38 L64.44 373.38 L64.44 360.25 C64.44 359.45 64.16 358.71 63.69 358.13 C63.36 357.72 62.94 357.39
							 62.46 357.15 C61.98 356.92 61.44 356.79 60.87 356.79 ZM37.93 356.79 L26.51 356.79 C25.69 356.79 24.93
							 357.06 24.33 357.51 C23.91 357.83 23.56 358.24 23.32 358.7 C23.08 359.17 22.94 359.69 22.94 360.25 L22.94
							 373.38 L26.07 373.38 L26.07 383.52 L38.25 383.52 L38.25 373.38 L41.5 373.38 L41.5 360.25 C41.5 359.45
							 41.22 358.71 40.75 358.13 C40.42 357.72 40 357.39 39.52 357.15 C39.04 356.92 38.5 356.79 37.93 356.79
							 ZM14.99 356.79 L3.57 356.79 C2.74 356.79 1.99 357.06 1.38 357.51 C0.96 357.83 0.62 358.24 0.38 358.7
							 C0.14 359.17 0 359.69 0 360.25 L0 373.38 L3.13 373.38 L3.13 383.52 L15.31 383.52 L15.31 373.38 L18.55
							 373.38 L18.55 360.25 C18.55 359.45 18.27 358.71 17.8 358.13 C17.48 357.72 17.06 357.39 16.58 357.15
							 C16.1 356.92 15.56 356.79 14.99 356.79 ZM60.49 350.29 A5.27101 5.11548 -180 1 0 49.95 350.29 A5.27101
							 5.11548 -180 1 0 60.49 350.29 ZM37.55 350.29 A5.27745 5.11548 -180 1 0 27 350.29 A5.27745 5.11548 -180
							 1 0 37.55 350.29 ZM14.61 350.29 A5.27745 5.11548 -180 1 0 4.06 350.29 A5.27745 5.11548 -180 1 0 14.61
							 350.29 Z" class="st9"/>
				<path d="M60.87 356.79 L49.45 356.79 C48.63 356.79 47.87 357.06 47.27 357.51 C46.85 357.83 46.5 358.24 46.26 358.7
							 C46.02 359.17 45.89 359.69 45.88 360.25 L45.88 373.38 L49.01 373.38 L49.01 383.52 L61.19 383.52 L61.19
							 373.38 L64.44 373.38 L64.44 360.25 C64.44 359.45 64.16 358.71 63.69 358.13 C63.36 357.72 62.94 357.39
							 62.46 357.15 C61.98 356.92 61.44 356.79 60.87 356.79" class="st10"/>
				<path d="M55.16 383.52 L55.16 375.41" class="st10"/>
				<path d="M49.01 373.38 L49.01 366.38" class="st10"/>
				<path d="M61.19 373.38 L61.19 366.38" class="st10"/>
				<path d="M37.93 356.79 L26.51 356.79 C25.69 356.79 24.93 357.06 24.33 357.51 C23.91 357.83 23.56 358.24 23.32 358.7
							 C23.08 359.17 22.94 359.69 22.94 360.25 L22.94 373.38 L26.07 373.38 L26.07 383.52 L38.25 383.52 L38.25
							 373.38 L41.5 373.38 L41.5 360.25 C41.5 359.45 41.22 358.71 40.75 358.13 C40.42 357.72 40 357.39 39.52
							 357.15 C39.04 356.92 38.5 356.79 37.93 356.79" class="st10"/>
				<path d="M32.22 383.52 L32.22 375.41" class="st10"/>
				<path d="M26.07 373.38 L26.07 366.38" class="st10"/>
				<path d="M38.25 373.38 L38.25 366.38" class="st10"/>
				<path d="M14.99 356.79 L3.57 356.79 C2.74 356.79 1.99 357.06 1.38 357.51 C0.96 357.83 0.62 358.24 0.38 358.7 C0.14
							 359.17 0 359.69 0 360.25 L0 373.38 L3.13 373.38 L3.13 383.52 L15.31 383.52 L15.31 373.38 L18.55 373.38
							 L18.55 360.25 C18.55 359.45 18.27 358.71 17.8 358.13 C17.48 357.72 17.06 357.39 16.58 357.15 C16.1 356.92
							 15.56 356.79 14.99 356.79" class="st10"/>
				<path d="M9.28 383.52 L9.28 375.41" class="st10"/>
				<path d="M3.13 373.38 L3.13 366.38" class="st10"/>
				<path d="M15.31 373.38 L15.31 366.38" class="st10"/>
				<path d="M60.49 350.29 A5.27101 5.11548 -180 1 0 49.95 350.29 A5.27101 5.11548 -180 1 0 60.49 350.29" class="st10"/>
				<path d="M37.55 350.29 A5.27745 5.11548 -180 1 0 27 350.29 A5.27745 5.11548 -180 1 0 37.55 350.29" class="st10"/>
				<path d="M14.61 350.29 A5.27745 5.11548 -180 1 0 4.06 350.29 A5.27745 5.11548 -180 1 0 14.61 350.29" class="st10"/>
			</g>
		</g>
		<g id="shape1074-280" v:mID="1074" v:groupContext="shape" v:layerMember="1" transform="translate(170.25,-49.62)">
			<title>15 ruled column.1074</title>
			<desc>S123 Tom S124 Aiden</desc>
			<v:userDefs>
				<v:ud v:nameU="AntiScale" v:val="VT0(1):26"/>
				<v:ud v:nameU="visVersion" v:val="VT0(15):26"/>
			</v:userDefs>
			<v:textBlock v:margins="rect(0,4,4,4)" v:verticalAlign="0"/>
			<v:textRect cx="45" cy="363.27" width="90" height="36"/>
			<path d="M0 381.27 L90 381.27 L90 345.27 L0 345.27 L0 381.27 Z" class="st9"/>
			<path d="M0 381.27 L90 381.27 L90 345.27 L0 345.27 L0 381.27" class="st11"/>
			<path d="M0 363.27 L90 363.27" class="st11"/>
			<path d="M0 381.27 L90 381.27" class="st11"/>
			<path d="M0 381.27 L90 381.27" class="st11"/>
			<path d="M0 381.27 L90 381.27" class="st11"/>
			<path d="M0 381.27 L90 381.27" class="st11"/>
			<path d="M0 381.27 L90 381.27" class="st11"/>
			<path d="M0 381.27 L90 381.27" class="st11"/>
			<path d="M0 381.27 L90 381.27" class="st11"/>
			<path d="M0 381.27 L90 381.27" class="st11"/>
			<path d="M0 381.27 L90 381.27" class="st11"/>
			<path d="M0 381.27 L90 381.27" class="st11"/>
			<path d="M0 381.27 L90 381.27" class="st11"/>
			<path d="M0 381.27 L90 381.27" class="st11"/>
			<path d="M0 381.27 L90 381.27" class="st11"/>
			<text x="4" y="358.77" class="st12" v:langID="1033"><v:paragraph v:spLine="0.25"/><v:tabList/>S123 Tom<v:newlineChar/><tspan
						x="4" dy="2.25em" class="st13">S124 Aiden</tspan></text>		</g>
		<g id="shape1075-299" v:mID="1075" v:groupContext="shape" transform="translate(171.375,-150.87)">
			<title>Sheet.1075</title>
			<desc>BIA4743 1 student</desc>
			<v:textBlock v:margins="rect(4,4,4,4)"/>
			<v:textRect cx="34.875" cy="372.27" width="69.75" height="22.5"/>
			<rect x="0" y="361.02" width="69.75" height="22.5" class="st14"/>
			<text x="14.46" y="368.67" class="st15" v:langID="1033"><v:paragraph v:horizAlign="1"/><v:tabList/>BIA4743<v:newlineChar/><tspan
						x="11.67" dy="1.2em" class="st13">1 student</tspan></text>		</g>
		<g id="shape1076-303" v:mID="1076" v:groupContext="shape" v:layerMember="1" transform="translate(106.875,-203.745)">
			<title>15 ruled column.1076</title>
			<desc>S126 S124 Aiden S127 S123 Tom ...</desc>
			<v:userDefs>
				<v:ud v:nameU="AntiScale" v:val="VT0(1):26"/>
				<v:ud v:nameU="visVersion" v:val="VT0(15):26"/>
			</v:userDefs>
			<v:textBlock v:margins="rect(0,4,4,4)" v:verticalAlign="0"/>
			<v:textRect cx="45" cy="338.52" width="90" height="90"/>
			<path d="M0 383.52 L90 383.52 L90 293.52 L0 293.52 L0 383.52 Z" class="st9"/>
			<path d="M0 383.52 L90 383.52 L90 293.52 L0 293.52 L0 383.52" class="st11"/>
			<path d="M0 311.52 L90 311.52" class="st11"/>
			<path d="M0 329.52 L90 329.52" class="st11"/>
			<path d="M0 347.52 L90 347.52" class="st11"/>
			<path d="M0 365.52 L90 365.52" class="st11"/>
			<path d="M0 383.52 L90 383.52" class="st11"/>
			<path d="M0 383.52 L90 383.52" class="st11"/>
			<path d="M0 383.52 L90 383.52" class="st11"/>
			<path d="M0 383.52 L90 383.52" class="st11"/>
			<path d="M0 383.52 L90 383.52" class="st11"/>
			<path d="M0 383.52 L90 383.52" class="st11"/>
			<path d="M0 383.52 L90 383.52" class="st11"/>
			<path d="M0 383.52 L90 383.52" class="st11"/>
			<path d="M0 383.52 L90 383.52" class="st11"/>
			<path d="M0 383.52 L90 383.52" class="st11"/>
			<text x="4" y="307.02" class="st12" v:langID="1033"><v:paragraph v:spLine="0.25"/><v:tabList/>S126<v:newlineChar/><tspan
						x="4" dy="2.25em" class="st13">S124 Aiden<v:newlineChar/></tspan><tspan x="4" dy="2.25em" class="st13">S127<v:newlineChar/></tspan><tspan
						x="4" dy="2.25em" class="st13">S123 Tom<v:newlineChar/></tspan><tspan x="4" dy="2.25em" class="st13">...</tspan></text>		</g>
		<g id="shape1077-325" v:mID="1077" v:groupContext="shape" transform="translate(107.25,-300.656)">
			<title>Sheet.1077</title>
			<desc>Sorted</desc>
			<v:textBlock v:margins="rect(4,4,4,4)"/>
			<v:textRect cx="34.875" cy="376.77" width="69.75" height="13.5"/>
			<rect x="0" y="370.02" width="69.75" height="13.5" class="st14"/>
			<text x="18.71" y="380.37" class="st15" v:langID="1033"><v:paragraph v:horizAlign="1"/><v:tabList/>Sorted</text>		</g>
	</g>
</svg>
