<?xml version="1.0" encoding="UTF-8" standalone="no"?><!DOCTYPE svg PUBLIC "-//W3C//DTD SVG 1.1//EN" "http://www.w3.org/Graphics/SVG/1.1/DTD/svg11.dtd"><!-- Generated by graphviz version 2.40.1 (20161225.0304)
 --><!-- Title: __EFMigrationsHistory Pages: 1 --><svg xmlns="http://www.w3.org/2000/svg" xmlns:xlink="http://www.w3.org/1999/xlink" width="460pt" height="396pt" viewBox="0.00 0.00 460.39 396.40">
<g id="graph0" class="graph" transform="scale(1 1) rotate(0) translate(4 392.4)">
<title>__EFMigrationsHistory</title>
<polygon fill="#ffffff" stroke="transparent" points="-4,4 -4,-392.4 456.3914,-392.4 456.3914,4 -4,4"/>
<!-- Courses -->
<g id="node1" class="node">
<title>Courses</title>
<polygon fill="none" stroke="#000000" points="0,-17.3 0,-125.3 218.9524,-125.3 218.9524,-17.3 0,-17.3"/>
<text text-anchor="middle" x="109.4762" y="-108.7" font-family="Times,serif" font-size="14.00" fill="#000000">Courses</text>
<polyline fill="none" stroke="#000000" points="0,-100.5 218.9524,-100.5 "/>
<text text-anchor="start" x="8" y="-83.9" font-family="Times,serif" font-size="14.00" fill="#000000">Name : text</text>
<text text-anchor="start" x="8" y="-67.1" font-family="Times,serif" font-size="14.00" fill="#000000"> CreditHours : integer</text>
<text text-anchor="start" x="8" y="-50.3" font-family="Times,serif" font-size="14.00" fill="#000000"> Created : timestamp with time zone</text>
<polyline fill="none" stroke="#000000" points="0,-42.1 218.9524,-42.1 "/>
<text text-anchor="start" x="8" y="-25.5" font-family="Times,serif" font-size="14.00" fill="#000000">Id : text</text>
</g>
<!-- Enrollments -->
<g id="node2" class="node">
<title>Enrollments</title>
<polygon fill="none" stroke="#000000" points="0,-221.1 0,-362.7 218.9524,-362.7 218.9524,-221.1 0,-221.1"/>
<text text-anchor="middle" x="109.4762" y="-346.1" font-family="Times,serif" font-size="14.00" fill="#000000">Enrollments</text>
<polyline fill="none" stroke="#000000" points="0,-337.9 218.9524,-337.9 "/>
<text text-anchor="start" x="8" y="-321.3" font-family="Times,serif" font-size="14.00" fill="#000000">CourseId : text</text>
<text text-anchor="start" x="8" y="-304.5" font-family="Times,serif" font-size="14.00" fill="#000000"> StudentId : text</text>
<text text-anchor="start" x="8" y="-287.7" font-family="Times,serif" font-size="14.00" fill="#000000"> Grade : double precision</text>
<text text-anchor="start" x="8" y="-270.9" font-family="Times,serif" font-size="14.00" fill="#000000"> Created : timestamp with time zone</text>
<text text-anchor="start" x="8" y="-254.1" font-family="Times,serif" font-size="14.00" fill="#000000"> LetterGrade : char</text>
<polyline fill="none" stroke="#000000" points="0,-245.9 218.9524,-245.9 "/>
<text text-anchor="start" x="8" y="-229.3" font-family="Times,serif" font-size="14.00" fill="#000000">Id : integer</text>
</g>
<!-- Enrollments&#45;&gt;Courses -->
<g id="edge1" class="edge">
<title>Enrollments-&gt;Courses</title>
<path fill="none" stroke="#595959" d="M72.9841,-220.8865C72.9841,-220.8865 72.9841,-135.384 72.9841,-135.384"/>
<polygon fill="#595959" stroke="#595959" points="76.4842,-135.3839 72.9841,-125.384 69.4842,-135.384 76.4842,-135.3839"/>
<text text-anchor="middle" x="142.9103" y="-164.8" font-family="Times,serif" font-size="14.00" fill="#000000">CourseId:Id</text>
</g>
<!-- Students -->
<g id="node4" class="node">
<title>Students</title>
<polygon fill="none" stroke="#000000" points="239.9909,-.5 239.9909,-142.1 444.9615,-142.1 444.9615,-.5 239.9909,-.5"/>
<text text-anchor="middle" x="342.4762" y="-125.5" font-family="Times,serif" font-size="14.00" fill="#000000">Students</text>
<polyline fill="none" stroke="#000000" points="239.9909,-117.3 444.9615,-117.3 "/>
<text text-anchor="start" x="247.9909" y="-100.7" font-family="Times,serif" font-size="14.00" fill="#000000">Name : text</text>
<text text-anchor="start" x="247.9909" y="-83.9" font-family="Times,serif" font-size="14.00" fill="#000000"> DOB : timestamp with time zone</text>
<text text-anchor="start" x="247.9909" y="-67.1" font-family="Times,serif" font-size="14.00" fill="#000000"> lat : double precision</text>
<text text-anchor="start" x="247.9909" y="-50.3" font-family="Times,serif" font-size="14.00" fill="#000000"> lon : double precision</text>
<text text-anchor="start" x="247.9909" y="-33.5" font-family="Times,serif" font-size="14.00" fill="#000000"> favPlace : text</text>
<polyline fill="none" stroke="#000000" points="239.9909,-25.3 444.9615,-25.3 "/>
<text text-anchor="start" x="247.9909" y="-8.7" font-family="Times,serif" font-size="14.00" fill="#000000">Id : text</text>
</g>
<!-- Enrollments&#45;&gt;Students -->
<g id="edge2" class="edge">
<title>Enrollments-&gt;Students</title>
<path fill="none" stroke="#595959" d="M145.9683,-220.8026C145.9683,-178.8918 145.9683,-134 145.9683,-134 145.9683,-134 229.9057,-134 229.9057,-134"/>
<polygon fill="#595959" stroke="#595959" points="229.9057,-137.5001 239.9057,-134 229.9056,-130.5001 229.9057,-137.5001"/>
<text text-anchor="middle" x="260.4713" y="-164.8" font-family="Times,serif" font-size="14.00" fill="#000000">StudentId:Id</text>
</g>
<!-- Profiles -->
<g id="node3" class="node">
<title>Profiles</title>
<polygon fill="none" stroke="#000000" points="236.561,-195.9 236.561,-387.9 452.3914,-387.9 452.3914,-195.9 236.561,-195.9"/>
<text text-anchor="middle" x="344.4762" y="-371.3" font-family="Times,serif" font-size="14.00" fill="#000000">Profiles</text>
<polyline fill="none" stroke="#000000" points="236.561,-363.1 452.3914,-363.1 "/>
<text text-anchor="start" x="244.561" y="-346.5" font-family="Times,serif" font-size="14.00" fill="#000000">StudentId : text</text>
<text text-anchor="start" x="244.561" y="-329.7" font-family="Times,serif" font-size="14.00" fill="#000000"> fcolor : text</text>
<text text-anchor="start" x="244.561" y="-312.9" font-family="Times,serif" font-size="14.00" fill="#000000"> address : text</text>
<text text-anchor="start" x="244.561" y="-296.1" font-family="Times,serif" font-size="14.00" fill="#000000"> lon : double precision</text>
<text text-anchor="start" x="244.561" y="-279.3" font-family="Times,serif" font-size="14.00" fill="#000000"> lat : double precision</text>
<text text-anchor="start" x="244.561" y="-262.5" font-family="Times,serif" font-size="14.00" fill="#000000"> height : double precision</text>
<text text-anchor="start" x="244.561" y="-245.7" font-family="Times,serif" font-size="14.00" fill="#000000"> weight : double precision</text>
<text text-anchor="start" x="244.561" y="-228.9" font-family="Times,serif" font-size="14.00" fill="#000000"> created : timestamp with time zone</text>
<polyline fill="none" stroke="#000000" points="236.561,-220.7 452.3914,-220.7 "/>
<text text-anchor="start" x="244.561" y="-204.1" font-family="Times,serif" font-size="14.00" fill="#000000">Id : integer</text>
</g>
<!-- Profiles&#45;&gt;Students -->
<g id="edge3" class="edge">
<title>Profiles-&gt;Students</title>
<path fill="none" stroke="#595959" d="M342.4762,-195.7834C342.4762,-195.7834 342.4762,-152.2161 342.4762,-152.2161"/>
<polygon fill="#595959" stroke="#595959" points="345.9763,-152.2161 342.4762,-142.2161 338.9763,-152.2161 345.9763,-152.2161"/>
<text text-anchor="middle" x="379.4713" y="-164.8" font-family="Times,serif" font-size="14.00" fill="#000000">StudentId:Id</text>
</g>
</g>
</svg>