<?xml version="1.0" encoding="UTF-8"?>
<svg id="Layer_1" data-name="Layer 1" xmlns="http://www.w3.org/2000/svg" version="1.1" viewBox="0 0 67.98 29.57">
  <defs>
    <style>
      .cls-1 {
        fill: #e8212f;
        stroke-width: 0px;
      }
    </style>
  </defs>
  <path class="cls-1" d="M3.3,6.29c0-2.98,3.24-4.31,5.79-4.31,2.16,0,4.75,1.46,5.82,5.61l.4,1.69h1.68V1.63c-2.08-.94-4.62-1.63-7.68-1.63C3.76,0,0,3.27,0,8.09c0,9.68,14.67,6.54,14.67,14.62,0,3.51-2.42,4.92-6.13,4.92-4.97,0-5.89-5.19-6.45-8.8H.41v8.46c1.8,1.23,5.23,2.29,7.6,2.29,6.29,0,10.62-3.84,10.62-8.99,0-4.49-2.12-6.31-8.17-8.59-5.51-2.08-7.16-2.64-7.16-5.7M40.94,2.07h2.53V.65h-7.8v1.42h3.08v18.69c0,4.25-2.21,6.86-6.09,6.86-2.57,0-5.39-1.59-5.39-6.58V2.07h3.07V.65h-10.17v1.42h2.43v19.08c0,5.64,3.28,8.41,9.9,8.41,5.61,0,8.45-4.03,8.45-8.77V2.07ZM67.98,2.07V.65h-7.8v1.42h3.08v18.69c0,4.25-2.21,6.86-6.09,6.86-2.57,0-5.39-1.59-5.39-6.58V2.07h3.06V.65h-10.17v1.42h2.43v19.08c0,5.64,3.28,8.41,9.9,8.41,5.61,0,8.45-4.03,8.45-8.77V2.07h2.53Z"/>
</svg>