<?xml version="1.0" encoding="UTF-8"?>
<svg xmlns="http://www.w3.org/2000/svg" version="1.1" xmlns:xlink="http://www.w3.org/1999/xlink" viewBox="0 0 63.6 63.5">
  <defs>
    <style>
      .cls-1 {
        fill: url(#linear-gradient);
      }
    </style>
    <linearGradient id="linear-gradient" x1="-262.9" y1="434.1" x2="-261.9" y2="434.1" gradientTransform="translate(16707.6 24143.5) scale(63.5 -55.5)" gradientUnits="userSpaceOnUse">
      <stop offset="0" stop-color="#f0f"/>
      <stop offset="1" stop-color="aqua"/>
    </linearGradient>
  </defs>
  <!-- Generator: Adobe Illustrator 28.7.1, SVG Export Plug-In . SVG Version: 1.2.0 Build 142)  -->
  <g>
    <g id="Layer_1">
      <path class="cls-1" d="M5.4,7.5h0c2-2.3,4.7-3.5,8-3.5h0c2.6,0,4.7.5,6.1,1.5h0c1.4,1.1,2.6,2.9,3.5,5.5h0l2.7,7.6,9.7-13.4h8.6l-15.7,20.8,4,11.4h0c.6,1.7,1.4,3.2,2.5,4.4h0c1,1.3,2,2,3,2.2h0c-.9,1.6-2,2.8-3.5,3.5h0c-1.5.7-3.3,1.1-5.4,1.1h0c-2.2,0-4-.7-5.5-2.1h0c-1.5-1.4-2.8-3.7-4-6.8h0l-1.9-5.1-9.7,12.8H0l14.7-20.4-4.6-12.9h0c-.7-1.9-1.4-3.3-2-4.3h0c-.7-1-1.6-1.7-2.6-2.3ZM34.1,56.2h0c2.2-.3,4-1.8,5.3-4.6h0c1.4-2.9,2.7-7.6,4-14.1h0l6.2-32.3h13.9l-6.2,32.3h0c-1.6,8.4-3.7,14.2-6.3,17.5h0c-1.4,1.7-2.9,2.9-4.6,3.6h0c-1.7.7-3.5,1-5.4,1h0c-1.9,0-3.4-.3-4.6-1h0c-1.2-.7-2-1.5-2.3-2.3Z"/>
    </g>
  </g>
</svg>